<svg xmlns="http://www.w3.org/2000/svg" width="676" height="912" viewBox="0 0 676 912">
<style>
.title { fill: #1e2a29; font-size: 24px; font-weight: 700; font-family: Georgia, serif; }
.subtitle { fill: #51605d; font-size: 13px; font-family: Georgia, serif; }
.panel-title { fill: #1e2a29; font-size: 16px; font-weight: 700; font-family: Georgia, serif; }
.panel-subtitle { fill: #51605d; font-size: 12px; font-family: Georgia, serif; }
.range-ring { fill: none; stroke: rgba(24, 48, 44, 0.16); stroke-width: 1; stroke-dasharray: 4 4; }
.safe-boundary { stroke: rgba(224, 147, 59, 0.85); stroke-width: 1.3; }
.warning-boundary { stroke: rgba(190, 66, 50, 0.95); stroke-width: 1.9; }
</style>
<rect x="0" y="0" width="676" height="912" fill="#fffdf9" />
<text x="0" y="28" class="title">Uncertainty-Aware Contour Pilot</text>
<text x="0" y="50" class="subtitle">case 2023-10-09T20-26-11Z__368216230__hgbt | own ship 368216230 | timestamp 2023-10-09T20:26:11Z | model hgbt</text>
<text x="0" y="68" class="subtitle">target_count 2 | max_cell_band_span 0.6060 | mean_target_band_width 0.4771</text>
<g transform="translate(0, 78)"><g><rect x="0" y="0" width="320" height="320" fill="#fbfcfb" stroke="#d4ddda" stroke-width="1" /><circle cx="160.00" cy="160.00" r="53.33" class="range-ring" /><circle cx="160.00" cy="160.00" r="106.67" class="range-ring" /><circle cx="160.00" cy="160.00" r="160.00" class="range-ring" /><rect x="154.79" y="161.61" width="3.60" height="3.60" fill="#79c9bd" fill-opacity="0.092" stroke="none" /><rect x="158.39" y="161.61" width="3.60" height="3.60" fill="#79c9bd" fill-opacity="0.110" stroke="none" /><rect x="161.99" y="161.61" width="3.60" height="3.60" fill="#79c9bd" fill-opacity="0.096" stroke="none" /><rect x="151.19" y="158.01" width="3.60" height="3.60" fill="#79c9bd" fill-opacity="0.092" stroke="none" /><rect x="154.79" y="158.01" width="3.60" height="3.60" fill="#79c9bd" fill-opacity="0.222" stroke="none" /><rect x="158.39" y="158.01" width="3.60" height="3.60" fill="#efb064" fill-opacity="0.440" stroke="none" /><rect x="161.99" y="158.01" width="3.60" height="3.60" fill="#79c9bd" fill-opacity="0.271" stroke="none" /><rect x="165.59" y="158.01" width="3.60" height="3.60" fill="#79c9bd" fill-opacity="0.101" stroke="none" /><rect x="151.19" y="154.41" width="3.60" height="3.60" fill="#79c9bd" fill-opacity="0.110" stroke="none" /><rect x="154.79" y="154.41" width="3.60" height="3.60" fill="#efb064" fill-opacity="0.437" stroke="none" /><rect x="158.39" y="154.41" width="3.60" height="3.60" fill="#db5b4e" fill-opacity="0.986" stroke="none" /><rect x="161.99" y="154.41" width="3.60" height="3.60" fill="#efb064" fill-opacity="0.561" stroke="none" /><rect x="165.59" y="154.41" width="3.60" height="3.60" fill="#79c9bd" fill-opacity="0.134" stroke="none" /><rect x="151.19" y="150.81" width="3.60" height="3.60" fill="#79c9bd" fill-opacity="0.096" stroke="none" /><rect x="154.79" y="150.81" width="3.60" height="3.60" fill="#79c9bd" fill-opacity="0.268" stroke="none" /><rect x="158.39" y="150.81" width="3.60" height="3.60" fill="#efb064" fill-opacity="0.558" stroke="none" /><rect x="161.99" y="150.81" width="3.60" height="3.60" fill="#79c9bd" fill-opacity="0.334" stroke="none" /><rect x="165.59" y="150.81" width="3.60" height="3.60" fill="#79c9bd" fill-opacity="0.108" stroke="none" /><rect x="154.79" y="147.21" width="3.60" height="3.60" fill="#79c9bd" fill-opacity="0.101" stroke="none" /><rect x="158.39" y="147.21" width="3.60" height="3.60" fill="#79c9bd" fill-opacity="0.133" stroke="none" /><rect x="161.99" y="147.21" width="3.60" height="3.60" fill="#79c9bd" fill-opacity="0.108" stroke="none" /><rect x="133.19" y="129.22" width="3.60" height="3.60" fill="#79c9bd" fill-opacity="0.094" stroke="none" /><rect x="136.79" y="129.22" width="3.60" height="3.60" fill="#79c9bd" fill-opacity="0.169" stroke="none" /><rect x="140.39" y="129.22" width="3.60" height="3.60" fill="#79c9bd" fill-opacity="0.198" stroke="none" /><rect x="143.99" y="129.22" width="3.60" height="3.60" fill="#79c9bd" fill-opacity="0.113" stroke="none" /><rect x="133.19" y="125.62" width="3.60" height="3.60" fill="#79c9bd" fill-opacity="0.148" stroke="none" /><rect x="136.79" y="125.62" width="3.60" height="3.60" fill="#efb064" fill-opacity="0.512" stroke="none" /><rect x="140.39" y="125.62" width="3.60" height="3.60" fill="#efb064" fill-opacity="0.652" stroke="none" /><rect x="143.99" y="125.62" width="3.60" height="3.60" fill="#79c9bd" fill-opacity="0.239" stroke="none" /><rect x="147.59" y="125.62" width="3.60" height="3.60" fill="#79c9bd" fill-opacity="0.089" stroke="none" /><rect x="133.19" y="122.02" width="3.60" height="3.60" fill="#79c9bd" fill-opacity="0.149" stroke="none" /><rect x="136.79" y="122.02" width="3.60" height="3.60" fill="#efb064" fill-opacity="0.517" stroke="none" /><rect x="140.39" y="122.02" width="3.60" height="3.60" fill="#efb064" fill-opacity="0.659" stroke="none" /><rect x="143.99" y="122.02" width="3.60" height="3.60" fill="#79c9bd" fill-opacity="0.241" stroke="none" /><rect x="147.59" y="122.02" width="3.60" height="3.60" fill="#79c9bd" fill-opacity="0.089" stroke="none" /><rect x="133.19" y="118.42" width="3.60" height="3.60" fill="#79c9bd" fill-opacity="0.095" stroke="none" /><rect x="136.79" y="118.42" width="3.60" height="3.60" fill="#79c9bd" fill-opacity="0.173" stroke="none" /><rect x="140.39" y="118.42" width="3.60" height="3.60" fill="#79c9bd" fill-opacity="0.203" stroke="none" /><rect x="143.99" y="118.42" width="3.60" height="3.60" fill="#79c9bd" fill-opacity="0.114" stroke="none" /><line x1="158.39" y1="161.61" x2="158.39" y2="158.01" class="safe-boundary" /><line x1="161.99" y1="161.61" x2="161.99" y2="158.01" class="safe-boundary" /><line x1="158.39" y1="161.61" x2="161.99" y2="161.61" class="safe-boundary" /><line x1="154.79" y1="158.01" x2="154.79" y2="154.41" class="safe-boundary" /><line x1="154.79" y1="158.01" x2="158.39" y2="158.01" class="safe-boundary" /><line x1="154.79" y1="154.41" x2="158.39" y2="154.41" class="safe-boundary" /><line x1="165.59" y1="158.01" x2="165.59" y2="154.41" class="safe-boundary" /><line x1="161.99" y1="158.01" x2="165.59" y2="158.01" class="safe-boundary" /><line x1="161.99" y1="154.41" x2="165.59" y2="154.41" class="safe-boundary" /><line x1="158.39" y1="154.41" x2="158.39" y2="150.81" class="safe-boundary" /><line x1="161.99" y1="154.41" x2="161.99" y2="150.81" class="safe-boundary" /><line x1="158.39" y1="150.81" x2="161.99" y2="150.81" class="safe-boundary" /><line x1="136.79" y1="129.22" x2="136.79" y2="125.62" class="safe-boundary" /><line x1="136.79" y1="129.22" x2="140.39" y2="129.22" class="safe-boundary" /><line x1="143.99" y1="129.22" x2="143.99" y2="125.62" class="safe-boundary" /><line x1="140.39" y1="129.22" x2="143.99" y2="129.22" class="safe-boundary" /><line x1="136.79" y1="125.62" x2="136.79" y2="122.02" class="safe-boundary" /><line x1="136.79" y1="122.02" x2="140.39" y2="122.02" class="safe-boundary" /><line x1="143.99" y1="125.62" x2="143.99" y2="122.02" class="safe-boundary" /><line x1="140.39" y1="122.02" x2="143.99" y2="122.02" class="safe-boundary" /><line x1="158.39" y1="158.01" x2="158.39" y2="154.41" class="warning-boundary" /><line x1="161.99" y1="158.01" x2="161.99" y2="154.41" class="warning-boundary" /><line x1="158.39" y1="158.01" x2="161.99" y2="158.01" class="warning-boundary" /><line x1="158.39" y1="154.41" x2="161.99" y2="154.41" class="warning-boundary" /><circle cx="160.00" cy="160.00" r="5" fill="#0b6e63" stroke="#ffffff" stroke-width="2" /><text x="0" y="350" class="panel-title">Raw Contour</text><text x="0" y="368" class="panel-subtitle">max risk 0.9845471224341573</text></g></g><g transform="translate(356, 78)"><g><rect x="0" y="0" width="320" height="320" fill="#fbfcfb" stroke="#d4ddda" stroke-width="1" /><circle cx="160.00" cy="160.00" r="53.33" class="range-ring" /><circle cx="160.00" cy="160.00" r="106.67" class="range-ring" /><circle cx="160.00" cy="160.00" r="160.00" class="range-ring" /><rect x="154.79" y="161.61" width="3.60" height="3.60" fill="#79c9bd" fill-opacity="0.090" stroke="none" /><rect x="158.39" y="161.61" width="3.60" height="3.60" fill="#79c9bd" fill-opacity="0.105" stroke="none" /><rect x="161.99" y="161.61" width="3.60" height="3.60" fill="#79c9bd" fill-opacity="0.093" stroke="none" /><rect x="151.19" y="158.01" width="3.60" height="3.60" fill="#79c9bd" fill-opacity="0.090" stroke="none" /><rect x="154.79" y="158.01" width="3.60" height="3.60" fill="#79c9bd" fill-opacity="0.199" stroke="none" /><rect x="158.39" y="158.01" width="3.60" height="3.60" fill="#79c9bd" fill-opacity="0.381" stroke="none" /><rect x="161.99" y="158.01" width="3.60" height="3.60" fill="#79c9bd" fill-opacity="0.240" stroke="none" /><rect x="165.59" y="158.01" width="3.60" height="3.60" fill="#79c9bd" fill-opacity="0.098" stroke="none" /><rect x="151.19" y="154.41" width="3.60" height="3.60" fill="#79c9bd" fill-opacity="0.105" stroke="none" /><rect x="154.79" y="154.41" width="3.60" height="3.60" fill="#79c9bd" fill-opacity="0.378" stroke="none" /><rect x="158.39" y="154.41" width="3.60" height="3.60" fill="#db5b4e" fill-opacity="0.836" stroke="none" /><rect x="161.99" y="154.41" width="3.60" height="3.60" fill="#efb064" fill-opacity="0.482" stroke="none" /><rect x="165.59" y="154.41" width="3.60" height="3.60" fill="#79c9bd" fill-opacity="0.125" stroke="none" /><rect x="151.19" y="150.81" width="3.60" height="3.60" fill="#79c9bd" fill-opacity="0.093" stroke="none" /><rect x="154.79" y="150.81" width="3.60" height="3.60" fill="#79c9bd" fill-opacity="0.237" stroke="none" /><rect x="158.39" y="150.81" width="3.60" height="3.60" fill="#efb064" fill-opacity="0.479" stroke="none" /><rect x="161.99" y="150.81" width="3.60" height="3.60" fill="#79c9bd" fill-opacity="0.292" stroke="none" /><rect x="165.59" y="150.81" width="3.60" height="3.60" fill="#79c9bd" fill-opacity="0.104" stroke="none" /><rect x="154.79" y="147.21" width="3.60" height="3.60" fill="#79c9bd" fill-opacity="0.097" stroke="none" /><rect x="158.39" y="147.21" width="3.60" height="3.60" fill="#79c9bd" fill-opacity="0.124" stroke="none" /><rect x="161.99" y="147.21" width="3.60" height="3.60" fill="#79c9bd" fill-opacity="0.103" stroke="none" /><line x1="158.39" y1="158.01" x2="158.39" y2="154.41" class="safe-boundary" /><line x1="158.39" y1="158.01" x2="161.99" y2="158.01" class="safe-boundary" /><line x1="165.59" y1="158.01" x2="165.59" y2="154.41" class="safe-boundary" /><line x1="161.99" y1="158.01" x2="165.59" y2="158.01" class="safe-boundary" /><line x1="161.99" y1="154.41" x2="165.59" y2="154.41" class="safe-boundary" /><line x1="158.39" y1="154.41" x2="158.39" y2="150.81" class="safe-boundary" /><line x1="161.99" y1="154.41" x2="161.99" y2="150.81" class="safe-boundary" /><line x1="158.39" y1="150.81" x2="161.99" y2="150.81" class="safe-boundary" /><line x1="158.39" y1="158.01" x2="158.39" y2="154.41" class="warning-boundary" /><line x1="161.99" y1="158.01" x2="161.99" y2="154.41" class="warning-boundary" /><line x1="158.39" y1="158.01" x2="161.99" y2="158.01" class="warning-boundary" /><line x1="158.39" y1="154.41" x2="161.99" y2="154.41" class="warning-boundary" /><circle cx="160.00" cy="160.00" r="5" fill="#0b6e63" stroke="#ffffff" stroke-width="2" /><text x="0" y="350" class="panel-title">Lower Band</text><text x="0" y="368" class="panel-subtitle">max risk 0.8221794651708243</text></g></g><g transform="translate(0, 500)"><g><rect x="0" y="0" width="320" height="320" fill="#fbfcfb" stroke="#d4ddda" stroke-width="1" /><circle cx="160.00" cy="160.00" r="53.33" class="range-ring" /><circle cx="160.00" cy="160.00" r="106.67" class="range-ring" /><circle cx="160.00" cy="160.00" r="160.00" class="range-ring" /><rect x="154.79" y="161.61" width="3.60" height="3.60" fill="#79c9bd" fill-opacity="0.091" stroke="none" /><rect x="158.39" y="161.61" width="3.60" height="3.60" fill="#79c9bd" fill-opacity="0.109" stroke="none" /><rect x="161.99" y="161.61" width="3.60" height="3.60" fill="#79c9bd" fill-opacity="0.095" stroke="none" /><rect x="151.19" y="158.01" width="3.60" height="3.60" fill="#79c9bd" fill-opacity="0.091" stroke="none" /><rect x="154.79" y="158.01" width="3.60" height="3.60" fill="#79c9bd" fill-opacity="0.218" stroke="none" /><rect x="158.39" y="158.01" width="3.60" height="3.60" fill="#efb064" fill-opacity="0.429" stroke="none" /><rect x="161.99" y="158.01" width="3.60" height="3.60" fill="#79c9bd" fill-opacity="0.265" stroke="none" /><rect x="165.59" y="158.01" width="3.60" height="3.60" fill="#79c9bd" fill-opacity="0.101" stroke="none" /><rect x="151.19" y="154.41" width="3.60" height="3.60" fill="#79c9bd" fill-opacity="0.109" stroke="none" /><rect x="154.79" y="154.41" width="3.60" height="3.60" fill="#efb064" fill-opacity="0.426" stroke="none" /><rect x="158.39" y="154.41" width="3.60" height="3.60" fill="#db5b4e" fill-opacity="0.957" stroke="none" /><rect x="161.99" y="154.41" width="3.60" height="3.60" fill="#efb064" fill-opacity="0.546" stroke="none" /><rect x="165.59" y="154.41" width="3.60" height="3.60" fill="#79c9bd" fill-opacity="0.132" stroke="none" /><rect x="151.19" y="150.81" width="3.60" height="3.60" fill="#79c9bd" fill-opacity="0.095" stroke="none" /><rect x="154.79" y="150.81" width="3.60" height="3.60" fill="#79c9bd" fill-opacity="0.263" stroke="none" /><rect x="158.39" y="150.81" width="3.60" height="3.60" fill="#efb064" fill-opacity="0.543" stroke="none" /><rect x="161.99" y="150.81" width="3.60" height="3.60" fill="#79c9bd" fill-opacity="0.326" stroke="none" /><rect x="165.59" y="150.81" width="3.60" height="3.60" fill="#79c9bd" fill-opacity="0.107" stroke="none" /><rect x="154.79" y="147.21" width="3.60" height="3.60" fill="#79c9bd" fill-opacity="0.100" stroke="none" /><rect x="158.39" y="147.21" width="3.60" height="3.60" fill="#79c9bd" fill-opacity="0.131" stroke="none" /><rect x="161.99" y="147.21" width="3.60" height="3.60" fill="#79c9bd" fill-opacity="0.107" stroke="none" /><line x1="158.39" y1="161.61" x2="158.39" y2="158.01" class="safe-boundary" /><line x1="161.99" y1="161.61" x2="161.99" y2="158.01" class="safe-boundary" /><line x1="158.39" y1="161.61" x2="161.99" y2="161.61" class="safe-boundary" /><line x1="154.79" y1="158.01" x2="154.79" y2="154.41" class="safe-boundary" /><line x1="154.79" y1="158.01" x2="158.39" y2="158.01" class="safe-boundary" /><line x1="154.79" y1="154.41" x2="158.39" y2="154.41" class="safe-boundary" /><line x1="165.59" y1="158.01" x2="165.59" y2="154.41" class="safe-boundary" /><line x1="161.99" y1="158.01" x2="165.59" y2="158.01" class="safe-boundary" /><line x1="161.99" y1="154.41" x2="165.59" y2="154.41" class="safe-boundary" /><line x1="158.39" y1="154.41" x2="158.39" y2="150.81" class="safe-boundary" /><line x1="161.99" y1="154.41" x2="161.99" y2="150.81" class="safe-boundary" /><line x1="158.39" y1="150.81" x2="161.99" y2="150.81" class="safe-boundary" /><line x1="158.39" y1="158.01" x2="158.39" y2="154.41" class="warning-boundary" /><line x1="161.99" y1="158.01" x2="161.99" y2="154.41" class="warning-boundary" /><line x1="158.39" y1="158.01" x2="161.99" y2="158.01" class="warning-boundary" /><line x1="158.39" y1="154.41" x2="161.99" y2="154.41" class="warning-boundary" /><circle cx="160.00" cy="160.00" r="5" fill="#0b6e63" stroke="#ffffff" stroke-width="2" /><text x="0" y="350" class="panel-title">Mean Band</text><text x="0" y="368" class="panel-subtitle">max risk 0.9537712374213787</text></g></g><g transform="translate(356, 500)"><g><rect x="0" y="0" width="320" height="320" fill="#fbfcfb" stroke="#d4ddda" stroke-width="1" /><circle cx="160.00" cy="160.00" r="53.33" class="range-ring" /><circle cx="160.00" cy="160.00" r="106.67" class="range-ring" /><circle cx="160.00" cy="160.00" r="160.00" class="range-ring" /><rect x="154.79" y="161.61" width="3.60" height="3.60" fill="#79c9bd" fill-opacity="0.092" stroke="none" /><rect x="158.39" y="161.61" width="3.60" height="3.60" fill="#79c9bd" fill-opacity="0.110" stroke="none" /><rect x="161.99" y="161.61" width="3.60" height="3.60" fill="#79c9bd" fill-opacity="0.096" stroke="none" /><rect x="151.19" y="158.01" width="3.60" height="3.60" fill="#79c9bd" fill-opacity="0.092" stroke="none" /><rect x="154.79" y="158.01" width="3.60" height="3.60" fill="#79c9bd" fill-opacity="0.222" stroke="none" /><rect x="158.39" y="158.01" width="3.60" height="3.60" fill="#efb064" fill-opacity="0.439" stroke="none" /><rect x="161.99" y="158.01" width="3.60" height="3.60" fill="#79c9bd" fill-opacity="0.271" stroke="none" /><rect x="165.59" y="158.01" width="3.60" height="3.60" fill="#79c9bd" fill-opacity="0.101" stroke="none" /><rect x="151.19" y="154.41" width="3.60" height="3.60" fill="#79c9bd" fill-opacity="0.109" stroke="none" /><rect x="154.79" y="154.41" width="3.60" height="3.60" fill="#efb064" fill-opacity="0.436" stroke="none" /><rect x="158.39" y="154.41" width="3.60" height="3.60" fill="#db5b4e" fill-opacity="0.982" stroke="none" /><rect x="161.99" y="154.41" width="3.60" height="3.60" fill="#efb064" fill-opacity="0.559" stroke="none" /><rect x="165.59" y="154.41" width="3.60" height="3.60" fill="#79c9bd" fill-opacity="0.133" stroke="none" /><rect x="151.19" y="150.81" width="3.60" height="3.60" fill="#79c9bd" fill-opacity="0.096" stroke="none" /><rect x="154.79" y="150.81" width="3.60" height="3.60" fill="#79c9bd" fill-opacity="0.268" stroke="none" /><rect x="158.39" y="150.81" width="3.60" height="3.60" fill="#efb064" fill-opacity="0.556" stroke="none" /><rect x="161.99" y="150.81" width="3.60" height="3.60" fill="#79c9bd" fill-opacity="0.333" stroke="none" /><rect x="165.59" y="150.81" width="3.60" height="3.60" fill="#79c9bd" fill-opacity="0.108" stroke="none" /><rect x="154.79" y="147.21" width="3.60" height="3.60" fill="#79c9bd" fill-opacity="0.101" stroke="none" /><rect x="158.39" y="147.21" width="3.60" height="3.60" fill="#79c9bd" fill-opacity="0.133" stroke="none" /><rect x="161.99" y="147.21" width="3.60" height="3.60" fill="#79c9bd" fill-opacity="0.108" stroke="none" /><rect x="133.19" y="129.22" width="3.60" height="3.60" fill="#79c9bd" fill-opacity="0.094" stroke="none" /><rect x="136.79" y="129.22" width="3.60" height="3.60" fill="#79c9bd" fill-opacity="0.166" stroke="none" /><rect x="140.39" y="129.22" width="3.60" height="3.60" fill="#79c9bd" fill-opacity="0.194" stroke="none" /><rect x="143.99" y="129.22" width="3.60" height="3.60" fill="#79c9bd" fill-opacity="0.112" stroke="none" /><rect x="133.19" y="125.62" width="3.60" height="3.60" fill="#79c9bd" fill-opacity="0.146" stroke="none" /><rect x="136.79" y="125.62" width="3.60" height="3.60" fill="#efb064" fill-opacity="0.496" stroke="none" /><rect x="140.39" y="125.62" width="3.60" height="3.60" fill="#efb064" fill-opacity="0.631" stroke="none" /><rect x="143.99" y="125.62" width="3.60" height="3.60" fill="#79c9bd" fill-opacity="0.233" stroke="none" /><rect x="133.19" y="122.02" width="3.60" height="3.60" fill="#79c9bd" fill-opacity="0.147" stroke="none" /><rect x="136.79" y="122.02" width="3.60" height="3.60" fill="#efb064" fill-opacity="0.501" stroke="none" /><rect x="140.39" y="122.02" width="3.60" height="3.60" fill="#efb064" fill-opacity="0.638" stroke="none" /><rect x="143.99" y="122.02" width="3.60" height="3.60" fill="#79c9bd" fill-opacity="0.235" stroke="none" /><rect x="133.19" y="118.42" width="3.60" height="3.60" fill="#79c9bd" fill-opacity="0.094" stroke="none" /><rect x="136.79" y="118.42" width="3.60" height="3.60" fill="#79c9bd" fill-opacity="0.169" stroke="none" /><rect x="140.39" y="118.42" width="3.60" height="3.60" fill="#79c9bd" fill-opacity="0.198" stroke="none" /><rect x="143.99" y="118.42" width="3.60" height="3.60" fill="#79c9bd" fill-opacity="0.113" stroke="none" /><line x1="158.39" y1="161.61" x2="158.39" y2="158.01" class="safe-boundary" /><line x1="161.99" y1="161.61" x2="161.99" y2="158.01" class="safe-boundary" /><line x1="158.39" y1="161.61" x2="161.99" y2="161.61" class="safe-boundary" /><line x1="154.79" y1="158.01" x2="154.79" y2="154.41" class="safe-boundary" /><line x1="154.79" y1="158.01" x2="158.39" y2="158.01" class="safe-boundary" /><line x1="154.79" y1="154.41" x2="158.39" y2="154.41" class="safe-boundary" /><line x1="165.59" y1="158.01" x2="165.59" y2="154.41" class="safe-boundary" /><line x1="161.99" y1="158.01" x2="165.59" y2="158.01" class="safe-boundary" /><line x1="161.99" y1="154.41" x2="165.59" y2="154.41" class="safe-boundary" /><line x1="158.39" y1="154.41" x2="158.39" y2="150.81" class="safe-boundary" /><line x1="161.99" y1="154.41" x2="161.99" y2="150.81" class="safe-boundary" /><line x1="158.39" y1="150.81" x2="161.99" y2="150.81" class="safe-boundary" /><line x1="136.79" y1="129.22" x2="136.79" y2="125.62" class="safe-boundary" /><line x1="136.79" y1="129.22" x2="140.39" y2="129.22" class="safe-boundary" /><line x1="143.99" y1="129.22" x2="143.99" y2="125.62" class="safe-boundary" /><line x1="140.39" y1="129.22" x2="143.99" y2="129.22" class="safe-boundary" /><line x1="136.79" y1="125.62" x2="136.79" y2="122.02" class="safe-boundary" /><line x1="136.79" y1="122.02" x2="140.39" y2="122.02" class="safe-boundary" /><line x1="143.99" y1="125.62" x2="143.99" y2="122.02" class="safe-boundary" /><line x1="140.39" y1="122.02" x2="143.99" y2="122.02" class="safe-boundary" /><line x1="158.39" y1="158.01" x2="158.39" y2="154.41" class="warning-boundary" /><line x1="161.99" y1="158.01" x2="161.99" y2="154.41" class="warning-boundary" /><line x1="158.39" y1="158.01" x2="161.99" y2="158.01" class="warning-boundary" /><line x1="158.39" y1="154.41" x2="161.99" y2="154.41" class="warning-boundary" /><circle cx="160.00" cy="160.00" r="5" fill="#0b6e63" stroke="#ffffff" stroke-width="2" /><text x="0" y="350" class="panel-title">Upper Band</text><text x="0" y="368" class="panel-subtitle">max risk 0.9808293892099923</text></g></g>
</svg>