<svg xmlns="http://www.w3.org/2000/svg" width="676" height="912" viewBox="0 0 676 912">
<style>
.title { fill: #1e2a29; font-size: 24px; font-weight: 700; font-family: Georgia, serif; }
.subtitle { fill: #51605d; font-size: 13px; font-family: Georgia, serif; }
.panel-title { fill: #1e2a29; font-size: 16px; font-weight: 700; font-family: Georgia, serif; }
.panel-subtitle { fill: #51605d; font-size: 12px; font-family: Georgia, serif; }
.range-ring { fill: none; stroke: rgba(24, 48, 44, 0.16); stroke-width: 1; stroke-dasharray: 4 4; }
.safe-boundary { stroke: rgba(224, 147, 59, 0.85); stroke-width: 1.3; }
.warning-boundary { stroke: rgba(190, 66, 50, 0.95); stroke-width: 1.9; }
</style>
<rect x="0" y="0" width="676" height="912" fill="#fffdf9" />
<text x="0" y="28" class="title">Uncertainty-Aware Contour Pilot</text>
<text x="0" y="50" class="subtitle">case 2023-08-09T04-02-05Z__368102290__hgbt | own ship 368102290 | timestamp 2023-08-09T04:02:05Z | model hgbt</text>
<text x="0" y="68" class="subtitle">target_count 1 | max_cell_band_span 0.2773 | mean_target_band_width 0.2784</text>
<g transform="translate(0, 78)"><g><rect x="0" y="0" width="320" height="320" fill="#fbfcfb" stroke="#d4ddda" stroke-width="1" /><circle cx="160.00" cy="160.00" r="53.33" class="range-ring" /><circle cx="160.00" cy="160.00" r="106.67" class="range-ring" /><circle cx="160.00" cy="160.00" r="160.00" class="range-ring" /><rect x="154.79" y="176.01" width="3.60" height="3.60" fill="#79c9bd" fill-opacity="0.097" stroke="none" /><rect x="158.39" y="176.01" width="3.60" height="3.60" fill="#79c9bd" fill-opacity="0.120" stroke="none" /><rect x="161.99" y="176.01" width="3.60" height="3.60" fill="#79c9bd" fill-opacity="0.101" stroke="none" /><rect x="151.19" y="172.41" width="3.60" height="3.60" fill="#79c9bd" fill-opacity="0.095" stroke="none" /><rect x="154.79" y="172.41" width="3.60" height="3.60" fill="#79c9bd" fill-opacity="0.252" stroke="none" /><rect x="158.39" y="172.41" width="3.60" height="3.60" fill="#efb064" fill-opacity="0.500" stroke="none" /><rect x="161.99" y="172.41" width="3.60" height="3.60" fill="#79c9bd" fill-opacity="0.295" stroke="none" /><rect x="165.59" y="172.41" width="3.60" height="3.60" fill="#79c9bd" fill-opacity="0.103" stroke="none" /><rect x="151.19" y="168.81" width="3.60" height="3.60" fill="#79c9bd" fill-opacity="0.112" stroke="none" /><rect x="154.79" y="168.81" width="3.60" height="3.60" fill="#efb064" fill-opacity="0.453" stroke="none" /><rect x="158.39" y="168.81" width="3.60" height="3.60" fill="#db5b4e" fill-opacity="0.993" stroke="none" /><rect x="161.99" y="168.81" width="3.60" height="3.60" fill="#efb064" fill-opacity="0.548" stroke="none" /><rect x="165.59" y="168.81" width="3.60" height="3.60" fill="#79c9bd" fill-opacity="0.130" stroke="none" /><rect x="151.19" y="165.21" width="3.60" height="3.60" fill="#79c9bd" fill-opacity="0.095" stroke="none" /><rect x="154.79" y="165.21" width="3.60" height="3.60" fill="#79c9bd" fill-opacity="0.250" stroke="none" /><rect x="158.39" y="165.21" width="3.60" height="3.60" fill="#efb064" fill-opacity="0.497" stroke="none" /><rect x="161.99" y="165.21" width="3.60" height="3.60" fill="#79c9bd" fill-opacity="0.294" stroke="none" /><rect x="165.59" y="165.21" width="3.60" height="3.60" fill="#79c9bd" fill-opacity="0.103" stroke="none" /><rect x="154.79" y="161.61" width="3.60" height="3.60" fill="#79c9bd" fill-opacity="0.096" stroke="none" /><rect x="158.39" y="161.61" width="3.60" height="3.60" fill="#79c9bd" fill-opacity="0.120" stroke="none" /><rect x="161.99" y="161.61" width="3.60" height="3.60" fill="#79c9bd" fill-opacity="0.100" stroke="none" /><line x1="158.39" y1="176.01" x2="158.39" y2="172.41" class="safe-boundary" /><line x1="161.99" y1="176.01" x2="161.99" y2="172.41" class="safe-boundary" /><line x1="158.39" y1="176.01" x2="161.99" y2="176.01" class="safe-boundary" /><line x1="154.79" y1="172.41" x2="154.79" y2="168.81" class="safe-boundary" /><line x1="154.79" y1="172.41" x2="158.39" y2="172.41" class="safe-boundary" /><line x1="154.79" y1="168.81" x2="158.39" y2="168.81" class="safe-boundary" /><line x1="165.59" y1="172.41" x2="165.59" y2="168.81" class="safe-boundary" /><line x1="161.99" y1="172.41" x2="165.59" y2="172.41" class="safe-boundary" /><line x1="161.99" y1="168.81" x2="165.59" y2="168.81" class="safe-boundary" /><line x1="158.39" y1="168.81" x2="158.39" y2="165.21" class="safe-boundary" /><line x1="161.99" y1="168.81" x2="161.99" y2="165.21" class="safe-boundary" /><line x1="158.39" y1="165.21" x2="161.99" y2="165.21" class="safe-boundary" /><line x1="158.39" y1="172.41" x2="158.39" y2="168.81" class="warning-boundary" /><line x1="161.99" y1="172.41" x2="161.99" y2="168.81" class="warning-boundary" /><line x1="158.39" y1="172.41" x2="161.99" y2="172.41" class="warning-boundary" /><line x1="158.39" y1="168.81" x2="161.99" y2="168.81" class="warning-boundary" /><circle cx="160.00" cy="160.00" r="5" fill="#0b6e63" stroke="#ffffff" stroke-width="2" /><text x="0" y="350" class="panel-title">Raw Contour</text><text x="0" y="368" class="panel-subtitle">max risk 0.9928690036899195</text></g></g><g transform="translate(356, 78)"><g><rect x="0" y="0" width="320" height="320" fill="#fbfcfb" stroke="#d4ddda" stroke-width="1" /><circle cx="160.00" cy="160.00" r="53.33" class="range-ring" /><circle cx="160.00" cy="160.00" r="106.67" class="range-ring" /><circle cx="160.00" cy="160.00" r="160.00" class="range-ring" /><rect x="158.39" y="176.01" width="3.60" height="3.60" fill="#79c9bd" fill-opacity="0.100" stroke="none" /><rect x="161.99" y="176.01" width="3.60" height="3.60" fill="#79c9bd" fill-opacity="0.090" stroke="none" /><rect x="154.79" y="172.41" width="3.60" height="3.60" fill="#79c9bd" fill-opacity="0.165" stroke="none" /><rect x="158.39" y="172.41" width="3.60" height="3.60" fill="#79c9bd" fill-opacity="0.287" stroke="none" /><rect x="161.99" y="172.41" width="3.60" height="3.60" fill="#79c9bd" fill-opacity="0.186" stroke="none" /><rect x="165.59" y="172.41" width="3.60" height="3.60" fill="#79c9bd" fill-opacity="0.091" stroke="none" /><rect x="151.19" y="168.81" width="3.60" height="3.60" fill="#79c9bd" fill-opacity="0.096" stroke="none" /><rect x="154.79" y="168.81" width="3.60" height="3.60" fill="#79c9bd" fill-opacity="0.264" stroke="none" /><rect x="158.39" y="168.81" width="3.60" height="3.60" fill="#efb064" fill-opacity="0.530" stroke="none" /><rect x="161.99" y="168.81" width="3.60" height="3.60" fill="#79c9bd" fill-opacity="0.311" stroke="none" /><rect x="165.59" y="168.81" width="3.60" height="3.60" fill="#79c9bd" fill-opacity="0.105" stroke="none" /><rect x="154.79" y="165.21" width="3.60" height="3.60" fill="#79c9bd" fill-opacity="0.164" stroke="none" /><rect x="158.39" y="165.21" width="3.60" height="3.60" fill="#79c9bd" fill-opacity="0.285" stroke="none" /><rect x="161.99" y="165.21" width="3.60" height="3.60" fill="#79c9bd" fill-opacity="0.185" stroke="none" /><rect x="165.59" y="165.21" width="3.60" height="3.60" fill="#79c9bd" fill-opacity="0.091" stroke="none" /><rect x="158.39" y="161.61" width="3.60" height="3.60" fill="#79c9bd" fill-opacity="0.100" stroke="none" /><rect x="161.99" y="161.61" width="3.60" height="3.60" fill="#79c9bd" fill-opacity="0.090" stroke="none" /><line x1="158.39" y1="172.41" x2="158.39" y2="168.81" class="safe-boundary" /><line x1="161.99" y1="172.41" x2="161.99" y2="168.81" class="safe-boundary" /><line x1="158.39" y1="172.41" x2="161.99" y2="172.41" class="safe-boundary" /><line x1="158.39" y1="168.81" x2="161.99" y2="168.81" class="safe-boundary" /><circle cx="160.00" cy="160.00" r="5" fill="#0b6e63" stroke="#ffffff" stroke-width="2" /><text x="0" y="350" class="panel-title">Lower Band</text><text x="0" y="368" class="panel-subtitle">max risk 0.4896459799633091</text></g></g><g transform="translate(0, 500)"><g><rect x="0" y="0" width="320" height="320" fill="#fbfcfb" stroke="#d4ddda" stroke-width="1" /><circle cx="160.00" cy="160.00" r="53.33" class="range-ring" /><circle cx="160.00" cy="160.00" r="106.67" class="range-ring" /><circle cx="160.00" cy="160.00" r="160.00" class="range-ring" /><rect x="154.79" y="176.01" width="3.60" height="3.60" fill="#79c9bd" fill-opacity="0.091" stroke="none" /><rect x="158.39" y="176.01" width="3.60" height="3.60" fill="#79c9bd" fill-opacity="0.106" stroke="none" /><rect x="161.99" y="176.01" width="3.60" height="3.60" fill="#79c9bd" fill-opacity="0.093" stroke="none" /><rect x="151.19" y="172.41" width="3.60" height="3.60" fill="#79c9bd" fill-opacity="0.089" stroke="none" /><rect x="154.79" y="172.41" width="3.60" height="3.60" fill="#79c9bd" fill-opacity="0.191" stroke="none" /><rect x="158.39" y="172.41" width="3.60" height="3.60" fill="#79c9bd" fill-opacity="0.351" stroke="none" /><rect x="161.99" y="172.41" width="3.60" height="3.60" fill="#79c9bd" fill-opacity="0.219" stroke="none" /><rect x="165.59" y="172.41" width="3.60" height="3.60" fill="#79c9bd" fill-opacity="0.095" stroke="none" /><rect x="151.19" y="168.81" width="3.60" height="3.60" fill="#79c9bd" fill-opacity="0.101" stroke="none" /><rect x="154.79" y="168.81" width="3.60" height="3.60" fill="#79c9bd" fill-opacity="0.321" stroke="none" /><rect x="158.39" y="168.81" width="3.60" height="3.60" fill="#efb064" fill-opacity="0.669" stroke="none" /><rect x="161.99" y="168.81" width="3.60" height="3.60" fill="#79c9bd" fill-opacity="0.382" stroke="none" /><rect x="165.59" y="168.81" width="3.60" height="3.60" fill="#79c9bd" fill-opacity="0.112" stroke="none" /><rect x="151.19" y="165.21" width="3.60" height="3.60" fill="#79c9bd" fill-opacity="0.089" stroke="none" /><rect x="154.79" y="165.21" width="3.60" height="3.60" fill="#79c9bd" fill-opacity="0.190" stroke="none" /><rect x="158.39" y="165.21" width="3.60" height="3.60" fill="#79c9bd" fill-opacity="0.349" stroke="none" /><rect x="161.99" y="165.21" width="3.60" height="3.60" fill="#79c9bd" fill-opacity="0.218" stroke="none" /><rect x="165.59" y="165.21" width="3.60" height="3.60" fill="#79c9bd" fill-opacity="0.095" stroke="none" /><rect x="154.79" y="161.61" width="3.60" height="3.60" fill="#79c9bd" fill-opacity="0.091" stroke="none" /><rect x="158.39" y="161.61" width="3.60" height="3.60" fill="#79c9bd" fill-opacity="0.106" stroke="none" /><rect x="161.99" y="161.61" width="3.60" height="3.60" fill="#79c9bd" fill-opacity="0.093" stroke="none" /><line x1="158.39" y1="172.41" x2="158.39" y2="168.81" class="safe-boundary" /><line x1="161.99" y1="172.41" x2="161.99" y2="168.81" class="safe-boundary" /><line x1="158.39" y1="172.41" x2="161.99" y2="172.41" class="safe-boundary" /><line x1="158.39" y1="168.81" x2="161.99" y2="168.81" class="safe-boundary" /><circle cx="160.00" cy="160.00" r="5" fill="#0b6e63" stroke="#ffffff" stroke-width="2" /><text x="0" y="350" class="panel-title">Mean Band</text><text x="0" y="368" class="panel-subtitle">max risk 0.6402184128617776</text></g></g><g transform="translate(356, 500)"><g><rect x="0" y="0" width="320" height="320" fill="#fbfcfb" stroke="#d4ddda" stroke-width="1" /><circle cx="160.00" cy="160.00" r="53.33" class="range-ring" /><circle cx="160.00" cy="160.00" r="106.67" class="range-ring" /><circle cx="160.00" cy="160.00" r="160.00" class="range-ring" /><rect x="154.79" y="176.01" width="3.60" height="3.60" fill="#79c9bd" fill-opacity="0.093" stroke="none" /><rect x="158.39" y="176.01" width="3.60" height="3.60" fill="#79c9bd" fill-opacity="0.111" stroke="none" /><rect x="161.99" y="176.01" width="3.60" height="3.60" fill="#79c9bd" fill-opacity="0.096" stroke="none" /><rect x="151.19" y="172.41" width="3.60" height="3.60" fill="#79c9bd" fill-opacity="0.091" stroke="none" /><rect x="154.79" y="172.41" width="3.60" height="3.60" fill="#79c9bd" fill-opacity="0.213" stroke="none" /><rect x="158.39" y="172.41" width="3.60" height="3.60" fill="#efb064" fill-opacity="0.404" stroke="none" /><rect x="161.99" y="172.41" width="3.60" height="3.60" fill="#79c9bd" fill-opacity="0.246" stroke="none" /><rect x="165.59" y="172.41" width="3.60" height="3.60" fill="#79c9bd" fill-opacity="0.098" stroke="none" /><rect x="151.19" y="168.81" width="3.60" height="3.60" fill="#79c9bd" fill-opacity="0.105" stroke="none" /><rect x="154.79" y="168.81" width="3.60" height="3.60" fill="#79c9bd" fill-opacity="0.368" stroke="none" /><rect x="158.39" y="168.81" width="3.60" height="3.60" fill="#db5b4e" fill-opacity="0.786" stroke="none" /><rect x="161.99" y="168.81" width="3.60" height="3.60" fill="#efb064" fill-opacity="0.442" stroke="none" /><rect x="165.59" y="168.81" width="3.60" height="3.60" fill="#79c9bd" fill-opacity="0.119" stroke="none" /><rect x="151.19" y="165.21" width="3.60" height="3.60" fill="#79c9bd" fill-opacity="0.091" stroke="none" /><rect x="154.79" y="165.21" width="3.60" height="3.60" fill="#79c9bd" fill-opacity="0.212" stroke="none" /><rect x="158.39" y="165.21" width="3.60" height="3.60" fill="#79c9bd" fill-opacity="0.402" stroke="none" /><rect x="161.99" y="165.21" width="3.60" height="3.60" fill="#79c9bd" fill-opacity="0.245" stroke="none" /><rect x="165.59" y="165.21" width="3.60" height="3.60" fill="#79c9bd" fill-opacity="0.098" stroke="none" /><rect x="154.79" y="161.61" width="3.60" height="3.60" fill="#79c9bd" fill-opacity="0.093" stroke="none" /><rect x="158.39" y="161.61" width="3.60" height="3.60" fill="#79c9bd" fill-opacity="0.111" stroke="none" /><rect x="161.99" y="161.61" width="3.60" height="3.60" fill="#79c9bd" fill-opacity="0.096" stroke="none" /><line x1="158.39" y1="176.01" x2="158.39" y2="172.41" class="safe-boundary" /><line x1="161.99" y1="176.01" x2="161.99" y2="172.41" class="safe-boundary" /><line x1="158.39" y1="176.01" x2="161.99" y2="176.01" class="safe-boundary" /><line x1="158.39" y1="172.41" x2="158.39" y2="168.81" class="safe-boundary" /><line x1="158.39" y1="168.81" x2="161.99" y2="168.81" class="safe-boundary" /><line x1="165.59" y1="172.41" x2="165.59" y2="168.81" class="safe-boundary" /><line x1="161.99" y1="172.41" x2="165.59" y2="172.41" class="safe-boundary" /><line x1="161.99" y1="168.81" x2="165.59" y2="168.81" class="safe-boundary" /><line x1="158.39" y1="172.41" x2="158.39" y2="168.81" class="warning-boundary" /><line x1="161.99" y1="172.41" x2="161.99" y2="168.81" class="warning-boundary" /><line x1="158.39" y1="172.41" x2="161.99" y2="172.41" class="warning-boundary" /><line x1="158.39" y1="168.81" x2="161.99" y2="168.81" class="warning-boundary" /><circle cx="160.00" cy="160.00" r="5" fill="#0b6e63" stroke="#ffffff" stroke-width="2" /><text x="0" y="350" class="panel-title">Upper Band</text><text x="0" y="368" class="panel-subtitle">max risk 0.7669471149760488</text></g></g>
</svg>