<svg xmlns="http://www.w3.org/2000/svg" width="676" height="912" viewBox="0 0 676 912">
<style>
.title { fill: #1e2a29; font-size: 24px; font-weight: 700; font-family: Georgia, serif; }
.subtitle { fill: #51605d; font-size: 13px; font-family: Georgia, serif; }
.panel-title { fill: #1e2a29; font-size: 16px; font-weight: 700; font-family: Georgia, serif; }
.panel-subtitle { fill: #51605d; font-size: 12px; font-family: Georgia, serif; }
.range-ring { fill: none; stroke: rgba(24, 48, 44, 0.16); stroke-width: 1; stroke-dasharray: 4 4; }
.safe-boundary { stroke: rgba(224, 147, 59, 0.85); stroke-width: 1.3; }
.warning-boundary { stroke: rgba(190, 66, 50, 0.95); stroke-width: 1.9; }
</style>
<rect x="0" y="0" width="676" height="912" fill="#fffdf9" />
<text x="0" y="28" class="title">Uncertainty-Aware Contour Pilot</text>
<text x="0" y="50" class="subtitle">case 2023-08-08T19-49-32Z__366929710__extra_trees | own ship 366929710 | timestamp 2023-08-08T19:49:32Z | model extra_trees</text>
<text x="0" y="68" class="subtitle">target_count 1 | max_cell_band_span 0.3352 | mean_target_band_width 0.3543</text>
<g transform="translate(0, 78)"><g><rect x="0" y="0" width="320" height="320" fill="#fbfcfb" stroke="#d4ddda" stroke-width="1" /><circle cx="160.00" cy="160.00" r="53.33" class="range-ring" /><circle cx="160.00" cy="160.00" r="106.67" class="range-ring" /><circle cx="160.00" cy="160.00" r="160.00" class="range-ring" /><rect x="161.99" y="168.81" width="3.60" height="3.60" fill="#79c9bd" fill-opacity="0.105" stroke="none" /><rect x="165.59" y="168.81" width="3.60" height="3.60" fill="#79c9bd" fill-opacity="0.097" stroke="none" /><rect x="158.39" y="165.21" width="3.60" height="3.60" fill="#79c9bd" fill-opacity="0.161" stroke="none" /><rect x="161.99" y="165.21" width="3.60" height="3.60" fill="#79c9bd" fill-opacity="0.348" stroke="none" /><rect x="165.59" y="165.21" width="3.60" height="3.60" fill="#79c9bd" fill-opacity="0.266" stroke="none" /><rect x="169.19" y="165.21" width="3.60" height="3.60" fill="#79c9bd" fill-opacity="0.107" stroke="none" /><rect x="154.79" y="161.61" width="3.60" height="3.60" fill="#79c9bd" fill-opacity="0.092" stroke="none" /><rect x="158.39" y="161.61" width="3.60" height="3.60" fill="#79c9bd" fill-opacity="0.266" stroke="none" /><rect x="161.99" y="161.61" width="3.60" height="3.60" fill="#db5b4e" fill-opacity="0.693" stroke="none" /><rect x="165.59" y="161.61" width="3.60" height="3.60" fill="#efb064" fill-opacity="0.504" stroke="none" /><rect x="169.19" y="161.61" width="3.60" height="3.60" fill="#79c9bd" fill-opacity="0.142" stroke="none" /><rect x="158.39" y="158.01" width="3.60" height="3.60" fill="#79c9bd" fill-opacity="0.169" stroke="none" /><rect x="161.99" y="158.01" width="3.60" height="3.60" fill="#79c9bd" fill-opacity="0.374" stroke="none" /><rect x="165.59" y="158.01" width="3.60" height="3.60" fill="#79c9bd" fill-opacity="0.283" stroke="none" /><rect x="169.19" y="158.01" width="3.60" height="3.60" fill="#79c9bd" fill-opacity="0.109" stroke="none" /><rect x="161.99" y="154.41" width="3.60" height="3.60" fill="#79c9bd" fill-opacity="0.109" stroke="none" /><rect x="165.59" y="154.41" width="3.60" height="3.60" fill="#79c9bd" fill-opacity="0.100" stroke="none" /><line x1="161.99" y1="165.21" x2="161.99" y2="161.61" class="safe-boundary" /><line x1="161.99" y1="165.21" x2="165.59" y2="165.21" class="safe-boundary" /><line x1="161.99" y1="161.61" x2="165.59" y2="161.61" class="safe-boundary" /><line x1="169.19" y1="165.21" x2="169.19" y2="161.61" class="safe-boundary" /><line x1="165.59" y1="165.21" x2="169.19" y2="165.21" class="safe-boundary" /><line x1="165.59" y1="161.61" x2="169.19" y2="161.61" class="safe-boundary" /><line x1="161.99" y1="165.21" x2="161.99" y2="161.61" class="warning-boundary" /><line x1="165.59" y1="165.21" x2="165.59" y2="161.61" class="warning-boundary" /><line x1="161.99" y1="165.21" x2="165.59" y2="165.21" class="warning-boundary" /><line x1="161.99" y1="161.61" x2="165.59" y2="161.61" class="warning-boundary" /><circle cx="160.00" cy="160.00" r="5" fill="#0b6e63" stroke="#ffffff" stroke-width="2" /><text x="0" y="350" class="panel-title">Raw Contour</text><text x="0" y="368" class="panel-subtitle">max risk 0.6662181023177711</text></g></g><g transform="translate(356, 78)"><g><rect x="0" y="0" width="320" height="320" fill="#fbfcfb" stroke="#d4ddda" stroke-width="1" /><circle cx="160.00" cy="160.00" r="53.33" class="range-ring" /><circle cx="160.00" cy="160.00" r="106.67" class="range-ring" /><circle cx="160.00" cy="160.00" r="160.00" class="range-ring" /><rect x="161.99" y="168.81" width="3.60" height="3.60" fill="#79c9bd" fill-opacity="0.103" stroke="none" /><rect x="165.59" y="168.81" width="3.60" height="3.60" fill="#79c9bd" fill-opacity="0.096" stroke="none" /><rect x="158.39" y="165.21" width="3.60" height="3.60" fill="#79c9bd" fill-opacity="0.154" stroke="none" /><rect x="161.99" y="165.21" width="3.60" height="3.60" fill="#79c9bd" fill-opacity="0.326" stroke="none" /><rect x="165.59" y="165.21" width="3.60" height="3.60" fill="#79c9bd" fill-opacity="0.250" stroke="none" /><rect x="169.19" y="165.21" width="3.60" height="3.60" fill="#79c9bd" fill-opacity="0.105" stroke="none" /><rect x="154.79" y="161.61" width="3.60" height="3.60" fill="#79c9bd" fill-opacity="0.091" stroke="none" /><rect x="158.39" y="161.61" width="3.60" height="3.60" fill="#79c9bd" fill-opacity="0.250" stroke="none" /><rect x="161.99" y="161.61" width="3.60" height="3.60" fill="#efb064" fill-opacity="0.642" stroke="none" /><rect x="165.59" y="161.61" width="3.60" height="3.60" fill="#efb064" fill-opacity="0.469" stroke="none" /><rect x="169.19" y="161.61" width="3.60" height="3.60" fill="#79c9bd" fill-opacity="0.136" stroke="none" /><rect x="158.39" y="158.01" width="3.60" height="3.60" fill="#79c9bd" fill-opacity="0.162" stroke="none" /><rect x="161.99" y="158.01" width="3.60" height="3.60" fill="#79c9bd" fill-opacity="0.349" stroke="none" /><rect x="165.59" y="158.01" width="3.60" height="3.60" fill="#79c9bd" fill-opacity="0.266" stroke="none" /><rect x="169.19" y="158.01" width="3.60" height="3.60" fill="#79c9bd" fill-opacity="0.107" stroke="none" /><rect x="161.99" y="154.41" width="3.60" height="3.60" fill="#79c9bd" fill-opacity="0.107" stroke="none" /><rect x="165.59" y="154.41" width="3.60" height="3.60" fill="#79c9bd" fill-opacity="0.099" stroke="none" /><line x1="161.99" y1="165.21" x2="161.99" y2="161.61" class="safe-boundary" /><line x1="161.99" y1="165.21" x2="165.59" y2="165.21" class="safe-boundary" /><line x1="161.99" y1="161.61" x2="165.59" y2="161.61" class="safe-boundary" /><line x1="169.19" y1="165.21" x2="169.19" y2="161.61" class="safe-boundary" /><line x1="165.59" y1="165.21" x2="169.19" y2="165.21" class="safe-boundary" /><line x1="165.59" y1="161.61" x2="169.19" y2="161.61" class="safe-boundary" /><circle cx="160.00" cy="160.00" r="5" fill="#0b6e63" stroke="#ffffff" stroke-width="2" /><text x="0" y="350" class="panel-title">Lower Band</text><text x="0" y="368" class="panel-subtitle">max risk 0.6109013784622485</text></g></g><g transform="translate(0, 500)"><g><rect x="0" y="0" width="320" height="320" fill="#fbfcfb" stroke="#d4ddda" stroke-width="1" /><circle cx="160.00" cy="160.00" r="53.33" class="range-ring" /><circle cx="160.00" cy="160.00" r="106.67" class="range-ring" /><circle cx="160.00" cy="160.00" r="160.00" class="range-ring" /><rect x="158.39" y="168.81" width="3.60" height="3.60" fill="#79c9bd" fill-opacity="0.091" stroke="none" /><rect x="161.99" y="168.81" width="3.60" height="3.60" fill="#79c9bd" fill-opacity="0.115" stroke="none" /><rect x="165.59" y="168.81" width="3.60" height="3.60" fill="#79c9bd" fill-opacity="0.104" stroke="none" /><rect x="158.39" y="165.21" width="3.60" height="3.60" fill="#79c9bd" fill-opacity="0.195" stroke="none" /><rect x="161.99" y="165.21" width="3.60" height="3.60" fill="#efb064" fill-opacity="0.461" stroke="none" /><rect x="165.59" y="165.21" width="3.60" height="3.60" fill="#79c9bd" fill-opacity="0.344" stroke="none" /><rect x="169.19" y="165.21" width="3.60" height="3.60" fill="#79c9bd" fill-opacity="0.118" stroke="none" /><rect x="154.79" y="161.61" width="3.60" height="3.60" fill="#79c9bd" fill-opacity="0.097" stroke="none" /><rect x="158.39" y="161.61" width="3.60" height="3.60" fill="#79c9bd" fill-opacity="0.344" stroke="none" /><rect x="161.99" y="161.61" width="3.60" height="3.60" fill="#db5b4e" fill-opacity="0.950" stroke="none" /><rect x="165.59" y="161.61" width="3.60" height="3.60" fill="#db5b4e" fill-opacity="0.683" stroke="none" /><rect x="169.19" y="161.61" width="3.60" height="3.60" fill="#79c9bd" fill-opacity="0.167" stroke="none" /><rect x="158.39" y="158.01" width="3.60" height="3.60" fill="#79c9bd" fill-opacity="0.206" stroke="none" /><rect x="161.99" y="158.01" width="3.60" height="3.60" fill="#efb064" fill-opacity="0.497" stroke="none" /><rect x="165.59" y="158.01" width="3.60" height="3.60" fill="#79c9bd" fill-opacity="0.369" stroke="none" /><rect x="169.19" y="158.01" width="3.60" height="3.60" fill="#79c9bd" fill-opacity="0.122" stroke="none" /><rect x="158.39" y="154.41" width="3.60" height="3.60" fill="#79c9bd" fill-opacity="0.093" stroke="none" /><rect x="161.99" y="154.41" width="3.60" height="3.60" fill="#79c9bd" fill-opacity="0.122" stroke="none" /><rect x="165.59" y="154.41" width="3.60" height="3.60" fill="#79c9bd" fill-opacity="0.109" stroke="none" /><line x1="161.99" y1="168.81" x2="161.99" y2="165.21" class="safe-boundary" /><line x1="165.59" y1="168.81" x2="165.59" y2="165.21" class="safe-boundary" /><line x1="161.99" y1="168.81" x2="165.59" y2="168.81" class="safe-boundary" /><line x1="161.99" y1="165.21" x2="161.99" y2="161.61" class="safe-boundary" /><line x1="169.19" y1="165.21" x2="169.19" y2="161.61" class="safe-boundary" /><line x1="165.59" y1="165.21" x2="169.19" y2="165.21" class="safe-boundary" /><line x1="165.59" y1="161.61" x2="169.19" y2="161.61" class="safe-boundary" /><line x1="161.99" y1="161.61" x2="161.99" y2="158.01" class="safe-boundary" /><line x1="165.59" y1="161.61" x2="165.59" y2="158.01" class="safe-boundary" /><line x1="161.99" y1="158.01" x2="165.59" y2="158.01" class="safe-boundary" /><line x1="161.99" y1="165.21" x2="161.99" y2="161.61" class="warning-boundary" /><line x1="161.99" y1="165.21" x2="165.59" y2="165.21" class="warning-boundary" /><line x1="161.99" y1="161.61" x2="165.59" y2="161.61" class="warning-boundary" /><line x1="169.19" y1="165.21" x2="169.19" y2="161.61" class="warning-boundary" /><line x1="165.59" y1="165.21" x2="169.19" y2="165.21" class="warning-boundary" /><line x1="165.59" y1="161.61" x2="169.19" y2="161.61" class="warning-boundary" /><circle cx="160.00" cy="160.00" r="5" fill="#0b6e63" stroke="#ffffff" stroke-width="2" /><text x="0" y="350" class="panel-title">Mean Band</text><text x="0" y="368" class="panel-subtitle">max risk 0.9461510964769131</text></g></g><g transform="translate(356, 500)"><g><rect x="0" y="0" width="320" height="320" fill="#fbfcfb" stroke="#d4ddda" stroke-width="1" /><circle cx="160.00" cy="160.00" r="53.33" class="range-ring" /><circle cx="160.00" cy="160.00" r="106.67" class="range-ring" /><circle cx="160.00" cy="160.00" r="160.00" class="range-ring" /><rect x="158.39" y="168.81" width="3.60" height="3.60" fill="#79c9bd" fill-opacity="0.091" stroke="none" /><rect x="161.99" y="168.81" width="3.60" height="3.60" fill="#79c9bd" fill-opacity="0.115" stroke="none" /><rect x="165.59" y="168.81" width="3.60" height="3.60" fill="#79c9bd" fill-opacity="0.104" stroke="none" /><rect x="158.39" y="165.21" width="3.60" height="3.60" fill="#79c9bd" fill-opacity="0.195" stroke="none" /><rect x="161.99" y="165.21" width="3.60" height="3.60" fill="#efb064" fill-opacity="0.461" stroke="none" /><rect x="165.59" y="165.21" width="3.60" height="3.60" fill="#79c9bd" fill-opacity="0.344" stroke="none" /><rect x="169.19" y="165.21" width="3.60" height="3.60" fill="#79c9bd" fill-opacity="0.118" stroke="none" /><rect x="154.79" y="161.61" width="3.60" height="3.60" fill="#79c9bd" fill-opacity="0.097" stroke="none" /><rect x="158.39" y="161.61" width="3.60" height="3.60" fill="#79c9bd" fill-opacity="0.344" stroke="none" /><rect x="161.99" y="161.61" width="3.60" height="3.60" fill="#db5b4e" fill-opacity="0.950" stroke="none" /><rect x="165.59" y="161.61" width="3.60" height="3.60" fill="#db5b4e" fill-opacity="0.683" stroke="none" /><rect x="169.19" y="161.61" width="3.60" height="3.60" fill="#79c9bd" fill-opacity="0.167" stroke="none" /><rect x="158.39" y="158.01" width="3.60" height="3.60" fill="#79c9bd" fill-opacity="0.206" stroke="none" /><rect x="161.99" y="158.01" width="3.60" height="3.60" fill="#efb064" fill-opacity="0.497" stroke="none" /><rect x="165.59" y="158.01" width="3.60" height="3.60" fill="#79c9bd" fill-opacity="0.369" stroke="none" /><rect x="169.19" y="158.01" width="3.60" height="3.60" fill="#79c9bd" fill-opacity="0.122" stroke="none" /><rect x="158.39" y="154.41" width="3.60" height="3.60" fill="#79c9bd" fill-opacity="0.093" stroke="none" /><rect x="161.99" y="154.41" width="3.60" height="3.60" fill="#79c9bd" fill-opacity="0.122" stroke="none" /><rect x="165.59" y="154.41" width="3.60" height="3.60" fill="#79c9bd" fill-opacity="0.109" stroke="none" /><line x1="161.99" y1="168.81" x2="161.99" y2="165.21" class="safe-boundary" /><line x1="165.59" y1="168.81" x2="165.59" y2="165.21" class="safe-boundary" /><line x1="161.99" y1="168.81" x2="165.59" y2="168.81" class="safe-boundary" /><line x1="161.99" y1="165.21" x2="161.99" y2="161.61" class="safe-boundary" /><line x1="169.19" y1="165.21" x2="169.19" y2="161.61" class="safe-boundary" /><line x1="165.59" y1="165.21" x2="169.19" y2="165.21" class="safe-boundary" /><line x1="165.59" y1="161.61" x2="169.19" y2="161.61" class="safe-boundary" /><line x1="161.99" y1="161.61" x2="161.99" y2="158.01" class="safe-boundary" /><line x1="165.59" y1="161.61" x2="165.59" y2="158.01" class="safe-boundary" /><line x1="161.99" y1="158.01" x2="165.59" y2="158.01" class="safe-boundary" /><line x1="161.99" y1="165.21" x2="161.99" y2="161.61" class="warning-boundary" /><line x1="161.99" y1="165.21" x2="165.59" y2="165.21" class="warning-boundary" /><line x1="161.99" y1="161.61" x2="165.59" y2="161.61" class="warning-boundary" /><line x1="169.19" y1="165.21" x2="169.19" y2="161.61" class="warning-boundary" /><line x1="165.59" y1="165.21" x2="169.19" y2="165.21" class="warning-boundary" /><line x1="165.59" y1="161.61" x2="169.19" y2="161.61" class="warning-boundary" /><circle cx="160.00" cy="160.00" r="5" fill="#0b6e63" stroke="#ffffff" stroke-width="2" /><text x="0" y="350" class="panel-title">Upper Band</text><text x="0" y="368" class="panel-subtitle">max risk 0.9461510964769131</text></g></g>
</svg>